HIERARCHY
ROOT Hips
{
	OFFSET 0.00 0.00 0.00
	CHANNELS 6 Xposition Yposition Zposition Zrotation Yrotation Xrotation
	JOINT Spine
	{
		OFFSET	-0.0066	10.8226	-0.4307
		CHANNELS 3 Zrotation Yrotation Xrotation
		JOINT Spine1
		{
			OFFSET	0.0000	12.6263	-0.2112
			CHANNELS 3 Zrotation Yrotation Xrotation
			JOINT Spine2
			{
				OFFSET	0.0000	14.4301	0.0000
				CHANNELS 3 Zrotation Yrotation Xrotation
				JOINT Neck
				{
					OFFSET	0.0000	16.2338	0.0000
					CHANNELS 3 Zrotation Yrotation Xrotation
					JOINT Head
					{
						OFFSET	0.0000	6.7614	0.0000
						CHANNELS 3 Zrotation Yrotation Xrotation
						End Site
						{
							OFFSET 0.0000 23.0037 2.4456
						}
					}
				}
				JOINT LeftShoulder
				{
					OFFSET	10.9527	13.3171	-1.4436
					CHANNELS 3 Zrotation Yrotation Xrotation
					JOINT LeftArm
					{
						OFFSET	12.5621	-10.8187	0.1359
						CHANNELS 3 Zrotation Yrotation Xrotation
						JOINT LeftForeArm
						{
							OFFSET	18.8844	-21.6036	-1.0453
							CHANNELS 3 Zrotation Yrotation Xrotation
							JOINT LeftHand
							{
								OFFSET	13.3138	-14.1460	5.6551
								CHANNELS 3 Zrotation Yrotation Xrotation
								JOINT LeftHandThumb1
								{
									OFFSET	-0.2234	-4.5184	5.7249
									CHANNELS 3 Zrotation Yrotation Xrotation
									JOINT LeftHandThumb2
									{
										OFFSET	-0.1787	-3.6147	4.5798
										CHANNELS 3 Zrotation Yrotation Xrotation
										JOINT LeftHandThumb3
										{
											OFFSET	0.3288	-5.9239	3.0121
											CHANNELS 3 Zrotation Yrotation Xrotation
											End Site
											{
												OFFSET 0.7426 -5.8978 -0.2421
											}
										}
									}
								}
								JOINT LeftHandIndex1
								{
									OFFSET	9.9406	-11.6381	6.4224
									CHANNELS 3 Zrotation Yrotation Xrotation
									JOINT LeftHandIndex2
									{
										OFFSET	3.7566	-3.9716	0.6536
										CHANNELS 3 Zrotation Yrotation Xrotation
										JOINT LeftHandIndex3
										{
											OFFSET	0.1239	-4.1016	0.5838
											CHANNELS 3 Zrotation Yrotation Xrotation
											End Site
											{
												OFFSET -0.5425 -5.8416 0.4926
											}
										}
									}
								}
								JOINT LeftHandMiddle1
								{
									OFFSET	9.7285	-13.5636	1.1502
									CHANNELS 3 Zrotation Yrotation Xrotation
									JOINT LeftHandMiddle2
									{
										OFFSET	3.6112	-4.6700	-0.0223
										CHANNELS 3 Zrotation Yrotation Xrotation
										JOINT LeftHandMiddle3
										{
											OFFSET	-0.9717	-4.4064	0.5814
											CHANNELS 3 Zrotation Yrotation Xrotation
											End Site
											{
												OFFSET -0.5473 -6.5481 0.5540
											}
										}
									}
								}
								JOINT LeftHandRing1
								{
									OFFSET	7.3735	-14.4731	-3.1009
									CHANNELS 3 Zrotation Yrotation Xrotation
									JOINT LeftHandRing2
									{
										OFFSET	3.1552	-4.3381	-0.6877
										CHANNELS 3 Zrotation Yrotation Xrotation
										JOINT LeftHandRing3
										{
											OFFSET	-0.6730	-3.8541	0.3914
											CHANNELS 3 Zrotation Yrotation Xrotation
											End Site
											{
												OFFSET -1.3498 -5.2602 0.6271
											}
										}
									}
								}
								JOINT LeftHandPinky1
								{
									OFFSET	4.8259	-14.8922	-6.2759
									CHANNELS 3 Zrotation Yrotation Xrotation
									JOINT LeftHandPinky2
									{
										OFFSET	1.6777	-3.4757	-0.9769
										CHANNELS 3 Zrotation Yrotation Xrotation
										JOINT LeftHandPinky3
										{
											OFFSET	-0.4572	-2.7695	-0.0728
											CHANNELS 3 Zrotation Yrotation Xrotation
											End Site
											{
												OFFSET -1.7306 -3.7265 0.8577
											}
										}
									}
								}
							}
						}
					}
				}
				JOINT RightShoulder
				{
					OFFSET	-10.9527	13.3171	-1.4436
					CHANNELS 3 Zrotation Yrotation Xrotation
					JOINT RightArm
					{
						OFFSET	-12.5621	-10.8187	0.1359
						CHANNELS 3 Zrotation Yrotation Xrotation
						JOINT RightForeArm
						{
							OFFSET	-12.9927	-15.1138	-1.1998
							CHANNELS 3 Zrotation Yrotation Xrotation
							JOINT RightHand
							{
								OFFSET	-19.2055	-20.6359	5.8096
								CHANNELS 3 Zrotation Yrotation Xrotation
								JOINT RightHandIndex1
								{
									OFFSET	-11.7773	-11.2003	3.5246
									CHANNELS 3 Zrotation Yrotation Xrotation
									JOINT RightHandIndex2
									{
										OFFSET	-1.8031	-2.3101	0.8667
										CHANNELS 3 Zrotation Yrotation Xrotation
										JOINT RightHandIndex3
										{
											OFFSET	-0.9561	-2.4372	0.8479
											CHANNELS 3 Zrotation Yrotation Xrotation
											End Site
											{
												OFFSET -0.3592 -3.3007 1.2418
											}
										}
									}
								}
								JOINT RightHandMiddle1
								{
									OFFSET	-11.1069	-12.6853	0.1207
									CHANNELS 3 Zrotation Yrotation Xrotation
									JOINT RightHandMiddle2
									{
										OFFSET	-1.4413	-2.9544	0.4089
										CHANNELS 3 Zrotation Yrotation Xrotation
										JOINT RightHandMiddle3
										{
											OFFSET	-0.5774	-2.5977	0.3048
											CHANNELS 3 Zrotation Yrotation Xrotation
											End Site
											{
												OFFSET -0.3601 -3.5348 0.4882
											}
										}
									}
								}
								JOINT RightHandRing1
								{
									OFFSET	-9.8468	-13.0073	-3.1392
									CHANNELS 3 Zrotation Yrotation Xrotation
									JOINT RightHandRing2
									{
										OFFSET	-0.6811	-2.8000	-0.1504
										CHANNELS 3 Zrotation Yrotation Xrotation
										JOINT RightHandRing3
										{
											OFFSET	-0.4028	-2.2868	-0.2694
											CHANNELS 3 Zrotation Yrotation Xrotation
											End Site
											{
												OFFSET 0.1853 -3.2500 0.2083
											}
										}
									}
								}
								JOINT RightHandPinky1
								{
									OFFSET	-7.8050	-12.5466	-5.9736
									CHANNELS 3 Zrotation Yrotation Xrotation
									JOINT RightHandPinky2
									{
										OFFSET	0.0105	-2.2470	-0.3620
										CHANNELS 3 Zrotation Yrotation Xrotation
										JOINT RightHandPinky3
										{
											OFFSET	0.2970	-1.8184	-0.0591
											CHANNELS 3 Zrotation Yrotation Xrotation
											End Site
											{
												OFFSET -0.0337 -2.1669 -0.2214
											}
										}
									}
								}
								JOINT RightHandThumb1
								{
									OFFSET	-1.4515	-3.9395	1.6913
									CHANNELS 3 Zrotation Yrotation Xrotation
									JOINT RightHandThumb2
									{
										OFFSET	-1.1612	-3.1516	3.3390
										CHANNELS 3 Zrotation Yrotation Xrotation
										JOINT RightHandThumb3
										{
											OFFSET	-0.2119	-3.9644	3.2468
											CHANNELS 3 Zrotation Yrotation Xrotation
											End Site
											{
												OFFSET -0.4081 -3.7882 1.9049
											}
										}
									}
								}
							}
						}
					}
				}
			}
		}
	}
	JOINT LeftUpLeg
	{
		OFFSET	13.2805	-6.0125	-0.5314
		CHANNELS 3 Zrotation Yrotation Xrotation
		JOINT LeftLeg
		{
			OFFSET	0.4217	-52.0404	1.5006
			CHANNELS 3 Zrotation Yrotation Xrotation
			JOINT LeftFoot
			{
				OFFSET	0.2212	-50.8660	-3.6051
				CHANNELS 3 Zrotation Yrotation Xrotation
				JOINT LeftToeBase
				{
					OFFSET	2.8257	-10.2731	19.2966
					CHANNELS 3 Zrotation Yrotation Xrotation
					End Site
					{
						OFFSET 0.8536 0.3355 9.0832
					}
				}
			}
		}
	}
	JOINT RightUpLeg
	{
		OFFSET	-13.2937	-6.0125	-0.5314
		CHANNELS 3 Zrotation Yrotation Xrotation
		JOINT RightLeg
		{
			OFFSET	-0.4217	-52.0404	1.5006
			CHANNELS 3 Zrotation Yrotation Xrotation
			JOINT RightFoot
			{
				OFFSET	-0.2212	-50.8660	-3.6051
				CHANNELS 3 Zrotation Yrotation Xrotation
				JOINT RightToeBase
				{
					OFFSET	-2.8257	-10.2731	19.2966
					CHANNELS 3 Zrotation Yrotation Xrotation
					End Site
					{
						OFFSET -0.8536 0.3355 9.0832
					}
				}
			}
		}
	}
}
MOTION
Frames: 7
Frame Time: 0.0333333
2.1861 110.6431 2.1314 0.2771 -32.4862 -1.6707 1.7036 16.0223 5.4519 0.9035 0.8485 4.3671 0.9143 0.8686 4.3611 -2.6022 1.4178 0.8931 -8.8658 5.0472 0.1460 2.0815 -13.2420 3.4920 -9.3574 -18.8699 -36.5966 62.3110 -26.6374 -107.8542 11.7135 -33.5808 22.2255 8.6985 10.9768 25.4113 -11.4515 -3.2533 -7.2214 0.1666 19.0289 25.1432 -88.2517 -24.1275 4.7773 -46.5586 -21.6186 -11.9288 -44.3177 -10.0434 -12.6786 -82.8711 -28.3590 -3.4331 -38.3322 -11.1750 -15.1483 -57.8923 -10.9056 -12.1092 -78.8966 -31.9564 -10.7564 -41.3347 -10.0322 -16.1180 -45.6882 -7.9393 -15.5722 -70.5348 -33.6092 -20.6626 -48.4096 -10.5193 -23.9790 -31.0937 -2.5869 -8.5174 -6.8425 18.9617 -0.8318 3.2584 32.8682 -37.3484 -54.2111 41.1166 -109.9698 -29.4633 14.9328 5.4902 83.7055 10.6813 9.7486 72.6926 22.9187 12.2190 38.8022 13.3707 3.6806 72.7046 16.2628 -1.1355 74.0800 20.3577 -3.6629 45.8237 10.6145 -5.1779 57.1003 18.9847 -14.3132 83.0368 16.3910 -20.2533 40.4630 1.7239 -5.7707 43.6278 17.9316 -24.9896 75.5140 5.7595 -21.2384 61.9866 5.8714 -20.3674 10.9077 -19.1410 20.0306 -9.8050 -6.8952 6.1876 -15.2275 12.7451 47.0819 7.3658 16.6621 -20.7620 -2.7082 -10.0635 40.5097 -7.8177 -3.2952 -17.0722 0.0000 0.0000 -0.0852 -6.8864 -9.3324 -19.1261 -2.1499 -4.4248 43.5569 6.6758 1.1609 -21.0511 0.0000 0.0000 -0.0000 
1.1680 109.7825 1.2840 -0.0588 -29.3778 -2.7256 2.4802 15.8116 5.8281 1.2780 0.6798 4.6419 1.2886 0.7114 4.6347 -2.8154 1.3471 0.9659 -8.5324 4.3652 0.6801 1.2519 -12.9369 3.5968 -10.5747 -20.2028 -34.5861 62.0238 -26.7960 -107.3831 13.7241 -34.4151 20.6895 8.6985 10.9768 25.4113 -11.4515 -3.2533 -7.2214 0.1666 19.0290 25.1432 -88.2517 -24.1275 4.7773 -46.5586 -21.6186 -11.9288 -44.3177 -10.0434 -12.6786 -82.8711 -28.3590 -3.4331 -38.3322 -11.1750 -15.1483 -57.8923 -10.9056 -12.1092 -78.8966 -31.9564 -10.7564 -41.3347 -10.0322 -16.1180 -45.6882 -7.9394 -15.5721 -70.5348 -33.6092 -20.6626 -48.4096 -10.5193 -23.9790 -31.0937 -2.5869 -8.5174 -7.7481 18.5176 -1.1036 3.6014 32.6520 -36.4782 -54.3058 41.0904 -110.1138 -29.9762 15.6960 5.1659 83.7055 10.6813 9.7486 72.6926 22.9187 12.2190 38.8022 13.3707 3.6806 72.7046 16.2627 -1.1355 74.0800 20.3577 -3.6629 45.8237 10.6145 -5.1779 57.1003 18.9847 -14.3131 83.0368 16.3910 -20.2533 40.4630 1.7239 -5.7707 43.6278 17.9316 -24.9896 75.5140 5.7596 -21.2384 61.9866 5.8714 -20.3674 10.9077 -19.1410 20.0306 -9.8051 -6.8952 6.1876 -15.2275 12.7451 47.0819 8.0280 16.2697 -22.2290 -3.1985 -9.8360 45.7600 -6.6624 -6.3962 -16.4995 0.0000 0.0000 -6.1063 -7.9802 -11.1668 -16.6213 -1.3111 -5.5534 45.3621 6.5807 1.2645 -23.5434 -0.0000 0.0000 -0.0000 
0.1835 109.4679 0.4637 0.0071 -27.1383 -3.5064 3.1293 15.7732 6.0424 1.5797 0.6827 4.8089 1.5916 0.7215 4.7997 -3.1020 1.3152 1.2343 -8.1351 3.8101 1.4579 0.3890 -12.0304 3.5867 -12.2102 -22.0705 -31.4700 61.7087 -26.9667 -106.8676 15.9656 -35.3173 19.0256 8.6985 10.9768 25.4113 -11.4515 -3.2533 -7.2214 0.1666 19.0290 25.1432 -88.2517 -24.1275 4.7773 -46.5586 -21.6186 -11.9288 -44.3177 -10.0434 -12.6786 -82.8711 -28.3590 -3.4331 -38.3322 -11.1749 -15.1483 -57.8923 -10.9056 -12.1092 -78.8966 -31.9564 -10.7564 -41.3347 -10.0322 -16.1180 -45.6882 -7.9393 -15.5722 -70.5348 -33.6092 -20.6626 -48.4096 -10.5193 -23.9790 -31.0937 -2.5869 -8.5174 -7.9049 18.4007 -1.1499 3.9450 32.3763 -34.9642 -54.4662 41.0455 -110.3579 -30.4864 16.3834 5.0451 83.7055 10.6813 9.7486 72.6926 22.9187 12.2190 38.8022 13.3707 3.6806 72.7046 16.2628 -1.1355 74.0800 20.3577 -3.6629 45.8237 10.6145 -5.1779 57.1003 18.9847 -14.3131 83.0368 16.3910 -20.2533 40.4630 1.7239 -5.7707 43.6278 17.9316 -24.9896 75.5140 5.7596 -21.2384 61.9866 5.8714 -20.3674 10.9077 -19.1410 20.0306 -9.8051 -6.8952 6.1876 -15.2275 12.7451 47.0819 8.3874 15.9609 -24.7795 -4.0516 -9.1729 51.4674 -5.2403 -8.8708 -12.3066 0.0126 0.0019 -9.8047 -9.0735 -12.4523 -14.1575 -1.1661 -6.7993 45.8020 6.8794 1.4272 -25.0791 0.0000 0.0000 0.0000 
-0.7617 109.5259 -0.3639 0.5482 -26.4025 -4.2233 3.4599 16.0021 6.0720 1.7051 0.9424 4.8503 1.7201 0.9836 4.8375 -3.3699 1.2992 1.6214 -7.6388 3.3157 2.3684 -0.3115 -10.6201 3.4389 -13.9553 -24.0565 -27.5457 61.2740 -27.1959 -106.1597 17.6377 -36.1342 17.7580 8.6985 10.9769 25.4113 -11.4515 -3.2533 -7.2214 0.1666 19.0290 25.1432 -88.2517 -24.1275 4.7773 -46.5586 -21.6186 -11.9288 -44.3177 -10.0434 -12.6786 -82.8711 -28.3590 -3.4331 -38.3322 -11.1749 -15.1483 -57.8923 -10.9056 -12.1092 -78.8966 -31.9564 -10.7564 -41.3347 -10.0322 -16.1180 -45.6881 -7.9393 -15.5721 -70.5348 -33.6092 -20.6626 -48.4096 -10.5193 -23.9790 -31.0937 -2.5869 -8.5174 -7.3736 18.6784 -1.0025 4.4465 32.0463 -33.0191 -54.6700 40.9876 -110.6682 -30.7640 16.7568 5.1934 83.7055 10.6813 9.7486 72.6926 22.9187 12.2190 38.8022 13.3707 3.6806 72.7046 16.2628 -1.1355 74.0800 20.3577 -3.6629 45.8237 10.6145 -5.1779 57.1003 18.9847 -14.3131 83.0368 16.3910 -20.2533 40.4630 1.7239 -5.7707 43.6278 17.9316 -24.9896 75.5140 5.7596 -21.2384 61.9866 5.8714 -20.3674 10.9077 -19.1410 20.0306 -9.8050 -6.8952 6.1876 -15.2275 12.7451 47.0819 8.5722 15.9952 -26.8403 -5.1062 -8.4221 55.9072 -4.3682 -10.4231 -6.4074 0.3347 0.0549 -17.4102 -9.6780 -12.7076 -12.2985 -1.7263 -6.9521 45.5427 7.5019 1.6108 -25.9852 0.0000 -0.0000 0.0001 
-1.6128 109.4983 -1.0762 1.0943 -26.1300 -4.9823 3.5873 16.3957 5.9894 1.7023 1.3661 4.8192 1.7210 1.4081 4.8013 -3.5548 1.2645 1.9743 -7.1204 2.7691 3.2337 -0.6693 -9.1434 3.2088 -15.4055 -25.6636 -23.6812 60.7591 -27.4586 -105.3250 17.7860 -36.7410 17.3032 8.6985 10.9768 25.4113 -11.4515 -3.2533 -7.2214 0.1666 19.0290 25.1432 -88.2517 -24.1275 4.7773 -46.5586 -21.6186 -11.9288 -44.3177 -10.0434 -12.6786 -82.8711 -28.3590 -3.4331 -38.3322 -11.1750 -15.1483 -57.8923 -10.9056 -12.1092 -78.8965 -31.9564 -10.7564 -41.3347 -10.0322 -16.1180 -45.6882 -7.9393 -15.5722 -70.5348 -33.6092 -20.6626 -48.4096 -10.5193 -23.9790 -31.0937 -2.5869 -8.5174 -6.6645 19.1351 -0.8104 5.1672 31.7379 -31.1537 -54.8568 40.9337 -110.9531 -30.6129 16.7934 5.5099 83.7055 10.6813 9.7486 72.6926 22.9187 12.2190 38.8023 13.3707 3.6806 72.7046 16.2628 -1.1355 74.0800 20.3577 -3.6629 45.8237 10.6145 -5.1779 57.1003 18.9847 -14.3131 83.0368 16.3910 -20.2533 40.4631 1.7239 -5.7707 43.6278 17.9316 -24.9896 75.5139 5.7596 -21.2384 61.9866 5.8714 -20.3674 10.9077 -19.1410 20.0306 -9.8050 -6.8952 6.1876 -15.2275 12.7451 47.0819 9.2113 15.7429 -29.2765 -6.1989 -8.0127 60.6537 -8.4378 -11.7885 0.7453 4.3798 0.6553 -22.2605 -10.9739 -13.6693 -10.3280 -0.6609 -6.5594 45.2211 7.2954 1.6374 -26.9333 0.0000 0.0000 -0.0000 
-2.2462 109.5894 -1.6042 1.6590 -25.5087 -5.5269 3.6426 16.7965 5.8535 1.6884 1.7939 4.7546 1.7098 1.8381 4.7308 -3.6713 1.2011 2.2129 -6.6542 2.1305 3.9393 -0.6573 -7.9566 2.9694 -16.3843 -26.7399 -20.5715 60.2619 -27.7034 -104.5231 16.1893 -37.1217 17.6712 8.6985 10.9768 25.4113 -11.4515 -3.2533 -7.2214 0.1666 19.0290 25.1432 -88.2517 -24.1275 4.7773 -46.5586 -21.6186 -11.9288 -44.3177 -10.0434 -12.6786 -82.8711 -28.3590 -3.4331 -38.3322 -11.1750 -15.1483 -57.8923 -10.9056 -12.1092 -78.8965 -31.9564 -10.7564 -41.3347 -10.0322 -16.1180 -45.6882 -7.9393 -15.5721 -70.5348 -33.6092 -20.6626 -48.4096 -10.5193 -23.9790 -31.0937 -2.5869 -8.5174 -6.1899 19.5238 -0.6843 5.9907 31.4955 -29.7177 -54.9974 40.8926 -111.1675 -30.0298 16.6676 5.7934 83.7055 10.6813 9.7486 72.6926 22.9187 12.2190 38.8022 13.3707 3.6806 72.7046 16.2628 -1.1355 74.0800 20.3577 -3.6629 45.8237 10.6145 -5.1780 57.1003 18.9847 -14.3131 83.0368 16.3910 -20.2533 40.4630 1.7239 -5.7707 43.6278 17.9316 -24.9896 75.5140 5.7596 -21.2384 61.9866 5.8714 -20.3674 10.9077 -19.1410 20.0306 -9.8051 -6.8952 6.1876 -15.2275 12.7451 47.0819 9.2438 15.0111 -31.0345 -6.5711 -7.7211 63.6700 -8.6978 -12.8771 2.9609 5.1811 0.4261 -17.1344 -12.2315 -14.3466 -8.2782 -0.2776 -6.5024 44.4698 7.6625 1.7600 -27.5894 -0.0000 0.0000 0.0001 
-2.6406 109.8651 -2.0336 2.2113 -24.8445 -5.6635 3.6762 17.0762 5.6569 1.7468 2.0817 4.6374 1.7683 2.1299 4.6084 -3.7766 1.1380 2.3493 -6.3272 1.5332 4.4296 -0.3177 -7.2844 2.7853 -16.8424 -27.2600 -18.8070 59.9546 -27.8504 -104.0294 13.4209 -37.2568 18.6787 8.6985 10.9768 25.4113 -11.4515 -3.2533 -7.2214 0.1666 19.0290 25.1432 -88.2517 -24.1275 4.7773 -46.5586 -21.6186 -11.9288 -44.3177 -10.0434 -12.6786 -82.8711 -28.3590 -3.4331 -38.3322 -11.1750 -15.1483 -57.8923 -10.9056 -12.1092 -78.8966 -31.9564 -10.7564 -41.3347 -10.0322 -16.1180 -45.6882 -7.9393 -15.5722 -70.5348 -33.6092 -20.6626 -48.4096 -10.5193 -23.9790 -31.0937 -2.5869 -8.5174 -5.9021 19.7960 -0.5970 6.3605 31.2986 -29.0613 -55.1115 40.8588 -111.3419 -29.2925 16.5364 5.9778 83.7055 10.6813 9.7486 72.6926 22.9187 12.2190 38.8023 13.3707 3.6806 72.7046 16.2628 -1.1355 74.0800 20.3577 -3.6629 45.8237 10.6145 -5.1780 57.1003 18.9847 -14.3131 83.0368 16.3910 -20.2533 40.4630 1.7239 -5.7707 43.6278 17.9316 -24.9896 75.5140 5.7595 -21.2384 61.9866 5.8714 -20.3674 10.9077 -19.1410 20.0306 -9.8050 -6.8953 6.1876 -15.2275 12.7451 47.0819 8.8263 14.6752 -32.0212 -6.4991 -7.7733 63.0929 -8.4143 -11.6186 1.1479 3.7510 0.0643 -7.0360 -12.8966 -14.2163 -6.5801 -1.1609 -6.7870 43.2096 8.8286 2.0400 -27.7848 0.0000 0.0000 -0.0001 
